<?xml version="1.0" standalone="no"?>
<!DOCTYPE svg PUBLIC "-//W3C//DTD SVG 20010904//EN"
 "http://www.w3.org/TR/2001/REC-SVG-20010904/DTD/svg10.dtd">
<svg version="1.0" xmlns="http://www.w3.org/2000/svg"
 width="350.000000pt" height="349.000000pt" viewBox="0 0 350.000000 349.000000"
 preserveAspectRatio="xMidYMid meet">

<g transform="translate(0.000000,349.000000) scale(0.100000,-0.100000)"
fill="#000000" stroke="none">
<path fill="#0f9444" d="M1630 3470 c6 -11 26 -32 45 -47 36 -29 45 -57 23 -67 -10 -5 -10 -7
0 -12 6 -3 12 -16 12 -29 0 -13 -6 -26 -12 -29 -9 -3 -8 -8 5 -16 11 -7 17
-24 17 -50 0 -61 17 -56 25 7 6 46 18 92 31 111 1 2 27 -15 57 -38 47 -35 57
-48 62 -83 l7 -41 15 27 c7 15 18 27 24 27 6 0 8 4 4 9 -3 6 4 15 15 21 32 17
23 31 -17 25 -34 -5 -43 -1 -88 40 l-50 45 25 19 c13 11 48 27 77 37 65 22 69
38 8 28 -30 -4 -50 -2 -60 6 -12 10 -15 9 -15 -5 0 -15 -6 -17 -40 -12 -23 3
-38 1 -34 -4 12 -20 -38 -7 -83 21 -55 35 -68 38 -53 10z"/>
<path d="M2010 3184 c0 -14 53 -64 68 -64 12 0 12 3 2 15 -18 22 -70 58 -70
49z"/>
<path d="M2163 3044 c21 -20 42 -33 45 -29 9 8 -54 65 -71 65 -6 0 5 -17 26
-36z"/>
<path d="M2260 2974 c0 -11 52 -64 62 -64 18 0 6 19 -27 44 -19 15 -35 24 -35
20z"/>
<path d="M2380 2862 c0 -14 59 -66 67 -59 7 8 -23 44 -49 58 -10 5 -18 6 -18
1z"/>
<path d="M2500 2754 c0 -6 16 -25 35 -44 19 -19 35 -29 35 -24 0 6 -16 25 -35
44 -19 19 -35 29 -35 24z"/>
<path d="M2640 2605 c18 -19 36 -32 39 -30 6 7 -50 65 -63 65 -5 0 5 -16 24
-35z"/>
<path d="M2720 2522 c0 -4 16 -23 35 -42 41 -40 46 -31 9 17 -24 31 -44 43
-44 25z"/>
<path d="M2830 2402 c0 -15 58 -77 65 -70 4 4 -5 23 -21 42 -28 34 -44 44 -44
28z"/>
<path d="M2957 2240 c27 -38 43 -50 43 -31 0 14 -50 71 -62 71 -5 0 3 -18 19
-40z"/>
<path d="M3039 2133 c21 -36 50 -67 56 -61 8 8 -43 78 -57 78 -5 0 -4 -8 1
-17z"/>
<path d="M3137 1989 c20 -33 41 -54 48 -47 7 6 -44 78 -56 78 -6 0 -2 -14 8
-31z"/>
<path d="M3210 1876 c0 -3 9 -21 21 -40 29 -49 44 -46 19 4 -11 22 -25 40 -30
40 -6 0 -10 -2 -10 -4z"/>
<path d="M3290 1736 c0 -2 7 -20 15 -39 15 -36 35 -57 35 -38 0 17 -33 81 -42
81 -4 0 -8 -2 -8 -4z"/>
<path d="M3360 1587 c0 -24 29 -91 36 -84 7 7 -14 77 -27 92 -6 5 -9 2 -9 -8z"/>
<path d="M3414 1423 c3 -10 8 -30 12 -45 5 -25 24 -40 24 -20 0 23 -22 82 -31
82 -6 0 -8 -8 -5 -17z"/>
<path d="M3456 1248 c7 -47 24 -76 24 -41 0 36 -12 83 -21 83 -5 0 -6 -19 -3
-42z"/>
<path d="M3474 1099 c3 -17 6 -41 6 -52 0 -13 4 -17 9 -11 12 11 2 94 -12 94
-5 0 -7 -13 -3 -31z"/>
<path d="M3478 964 c-5 -4 -8 -28 -8 -53 0 -32 3 -42 11 -34 5 5 9 29 7 53 -2
23 -6 38 -10 34z"/>
<path d="M30 800 c19 -16 42 -29 50 -29 9 0 1 12 -20 29 -19 17 -41 30 -50 30
-9 0 -2 -12 20 -30z"/>
<path d="M3442 771 c-14 -46 -15 -51 -4 -51 5 0 14 17 20 39 14 46 15 51 4 51
-5 0 -14 -17 -20 -39z"/>
<path d="M140 731 c0 -12 72 -63 78 -56 7 7 -14 28 -47 48 -17 10 -31 14 -31
8z"/>
<path d="M3382 615 c-27 -55 -10 -60 18 -5 22 43 24 50 12 50 -4 0 -18 -20
-30 -45z"/>
<path d="M270 641 c0 -12 70 -53 84 -48 6 2 -8 16 -31 30 -46 29 -53 32 -53
18z"/>
<path d="M410 553 c0 -13 78 -54 84 -45 3 5 -12 19 -33 30 -42 24 -51 26 -51
15z"/>
<path d="M3301 481 c-17 -22 -27 -42 -22 -45 10 -6 67 71 59 80 -3 3 -20 -13
-37 -35z"/>
<path d="M550 472 c0 -12 78 -47 86 -39 3 3 -12 15 -35 26 -45 23 -51 25 -51
13z"/>
<path d="M695 400 c-3 -6 6 -15 20 -20 15 -6 35 -15 46 -20 13 -7 19 -7 19 -1
0 16 -78 53 -85 41z"/>
<path d="M3192 359 c-19 -17 -31 -33 -28 -37 4 -3 23 11 44 31 44 44 31 49
-16 6z"/>
<path d="M846 321 c16 -16 84 -40 84 -31 0 5 -13 16 -30 25 -32 17 -70 21 -54
6z"/>
<path d="M3068 262 c-35 -23 -49 -42 -30 -42 14 1 83 58 75 63 -4 2 -25 -7
-45 -21z"/>
<path d="M990 262 c0 -4 20 -15 45 -24 53 -20 61 -5 9 17 -41 17 -54 19 -54 7z"/>
<path d="M1140 205 c0 -9 74 -36 90 -32 9 2 0 10 -24 20 -38 17 -66 22 -66 12z"/>
<path d="M2930 182 c-45 -21 -45 -21 -37 -29 8 -8 87 27 87 39 0 11 -9 9 -50
-10z"/>
<path d="M1290 155 c0 -6 38 -22 75 -31 41 -10 28 12 -14 24 -42 13 -61 15
-61 7z"/>
<path d="M2773 118 c-31 -10 -45 -28 -23 -28 15 0 80 28 80 34 0 8 -19 6 -57
-6z"/>
<path d="M1450 112 c0 -11 12 -16 68 -27 18 -4 32 -3 32 3 0 5 -16 13 -36 16
-19 4 -42 10 -50 13 -8 3 -14 0 -14 -5z"/>
<path d="M1610 72 c0 -10 46 -22 83 -22 34 0 6 17 -40 25 -26 4 -43 3 -43 -3z"/>
<path d="M2615 73 c-44 -11 -40 -26 5 -19 50 8 80 27 40 25 -14 -1 -34 -3 -45
-6z"/>
<path d="M1770 41 c0 -10 80 -21 94 -13 5 3 1 9 -10 13 -27 11 -84 11 -84 0z"/>
<path d="M2448 43 c-16 -2 -28 -9 -28 -15 0 -13 80 -2 95 13 9 9 -14 10 -67 2z"/>
<path d="M1935 20 c3 -5 26 -10 51 -10 24 0 44 5 44 10 0 6 -23 10 -51 10 -31
0 -48 -4 -44 -10z"/>
<path d="M2260 20 c0 -5 20 -10 45 -10 25 0 45 5 45 10 0 6 -20 10 -45 10 -25
0 -45 -4 -45 -10z"/>
<path d="M2100 10 c20 -13 90 -13 90 0 0 6 -24 10 -52 10 -38 0 -49 -3 -38
-10z"/>
</g>
</svg>
