<svg xmlns="http://www.w3.org/2000/svg" viewBox="0 0 1000 300" xmlns:v="https://vecta.io/nano"><style>.B{isolation:isolate}</style><path d="M92 225.6l23.2 23.5 70.8-70.2 70.9 70.2 23.2-23.5-94.1-93.5-94 93.5zm94-189.2L45.2 178.2l22.6 23.1L186 84.2l118.3 117.1 22.6-23.1L186 36.4zm-44.2 229.5H186h44.2L186 222.2l-44.2 43.7z"/><g class="B"><path d="M464.1 115.6c0 27.1-22 49.2-49 49.2h-34.9v-98h34.9c27 0 49 21.9 49 48.9h0zm-7.8 0c0-22.7-18.5-41.1-41.2-41.1h-9.7H388V157h27.1c22.7 0 41.2-18.6 41.2-41.4zm91.1-48.9v98h-7.8v-45.6h-57.4v45.6h-7.8v-98h7.8v44.6h57.4V66.7h7.8zm98.3 98h-8.5l-20-47.4-15.5-36.7-15.9 37.7h0l-19.6 46.4h-8.4l19.4-45.9h0l.5-1.1 1-2.5h0L598.2 69h0v-.3c0-.2 0-.3.2-.4 0 0 0-.2.2-.3l.3-.3.3-.3s.2-.2.3-.2.3-.2.4-.2h.2 0c.2 0 .4 0 .6-.2h1.8c.2 0 .3 0 .5.2h0 .2s.3 0 .4.2c0 0 .2.2.3.2s.2.2.3.3l.3.3s.2.2.2.3.2.3.2.4v.2h0l19.1 45.2 21.3 50.4.2.2z"/><use href="#B"/><path d="M825.7 164.7h-8.5l-20-47.4h0l-15.5-36.7-15.9 37.7h0l-19.6 46.4h-8.4l19.4-45.9h0l.5-1.1 1-2.5L778.2 69h0v-.3c0-.2 0-.3.2-.4 0 0 0-.2.2-.3l.3-.3.3-.3s.2-.2.3-.2.3-.2.4-.2h.2 0c.2 0 .4 0 .6-.2h1.8c.2 0 .3 0 .5.2h0 .2s.3 0 .4.2c0 0 .2.2.3.2s.2.2.3.3l.3.3s.2.2.2.3.2.3.2.4v.2h0l19.1 45.2 21.3 50.4.2.2z"/><use href="#B" x="179.9"/><path d="M928.8,164.7v-98h7.8v98h-7.8Z"/><path d="M389.6 213.5v12.9c2.2.2 4.5.2 7 .2l4.2-.2c.7 0 1.5-.3 2.3-.6.4-1.3.8-2.9 1.1-4.9h1.5l-.6 6.5v1l-5 .2h-3.5l-8.5-.2-6.9.2v-1.4h.7c1.3 0 2.1-.1 2.4-.4s.6-.8.7-1.8c.1-.9.2-3 .2-6.2v-12.2l-.1-4.9c0-1.3-.2-2-.3-2.3s-.3-.4-.5-.6-.8-.3-1.9-.4l-1.7-.2v-1.4h4.8l3 .2h8.6c0-.1 4.1-.2 4.1-.2l4.2.2c-.6 1.8-.9 4.1-.9 6.9H403l-.2-4.1c-1.8-.7-3.9-1-6.5-1l-6.4.3v12.1l3.9.2c3.5 0 5.5-.1 6-.4.5-.2.7-1 .7-2.3v-1.4h1.5l-.2 5.4.2 5h-1.5v-1.3c0-1.4-.3-2.3-.8-2.6-.6-.3-2.5-.5-5.9-.5s-2.5 0-3.9.2h-.3zm38.5-2.8c3.2.2 5.5.9 6.9 2.2s2.1 3 2.1 5.3-1.2 5.3-3.6 7.3c-2.4 2.1-5.4 3.1-9 3.1h-1.8l-3.8-.2h-4.5v-.9c.9-.4 1.5-.8 1.6-1 .2-.2.3-.6.3-1.2l.2-6v-13.9c0-3.7-.1-5.8-.4-6.3-.3-.6-1.1-.9-2.4-.9h-1.5v-1.4h3.9l2.5.2 5.5-.1h3.3c2.6 0 4.5.4 5.7 1.3 1.6 1.1 2.4 2.7 2.4 4.8s-.6 3.2-1.7 4.5-3 2.4-5.8 3.2h0zm-7.4-.6h2c3 0 5.1-.5 6.3-1.6 1.3-1 1.9-2.6 1.9-4.5s-.5-3-1.6-3.9-2.8-1.4-5.1-1.4-2.2 0-3.4.3l-.2 8.2v2.8h.1zm0 16.3c1.4.2 2.5.3 3.4.3 2.6 0 4.7-.7 6.1-2.1s2.2-3.3 2.2-5.7-.3-2.9-1-4-1.5-1.8-2.7-2.3-3-.7-5.5-.7h-2.6v14.4h.1zm23.1-6.8l-.3-.3 1.1-3.2 5.4.2 6.6-.2.2.3c-.5 1.1-.9 2.2-1.1 3.2l-5.6-.2-6.3.2h0zm18.1 2.2l1.1-.6.6 1c1 1.8 1.7 2.9 2 3.2.4.4 1.1.8 2 1.1s1.9.4 3.1.4c2.5 0 4.4-.7 5.8-2.2 1.4-1.4 2.1-3.5 2.1-6.2s-.6-4.2-1.9-5.6-3-2-5.1-2-2.3.2-3.3.7-1.8 1.2-2.6 2.2l-1-.3.3-9.9-.3-6.6.4-.2 7.2.3 8.6-.3.3.2-.2 1.7c0 .4 0 1 .2 1.8l-.3.2-4.9-.2-8.9.2-.4 9.3c1.1-.9 2.1-1.5 3.1-1.8 1-.4 2.1-.5 3.4-.5 2.8 0 5 .8 6.7 2.5s2.5 3.8 2.5 6.4-1.3 6.2-4 8.7-5.8 3.7-9.4 3.7-1.7 0-2.4-.3a11.22 11.22 0 0 1-2.4-1l-.7-2-1.7-4h0zm42.3 5.4h1.4c1.4 0 2.2-.3 2.5-1s.4-3.9.4-9.6V209l-.4-9.8c-.3-.6-1-.9-2.1-.9h-1.8v-1.4l7.3.2 5.5-.2v1.4h-1.7c-1.1 0-1.7.1-2 .4s-.4.9-.5 1.9v8.5 7.7l.4 9.5c.4.5 1.1.9 2.4.9h1.5v1.4l-6-.2-6.8.2v-1.4h0zm25.1-25.3v15.4l.2 7.3c0 1.1.3 1.7.5 1.9s1 .4 2.1.5h1.4v1.5l-4.4-.2-6.3.2v-1.4h1.6c1 0 1.6-.1 1.9-.4s.5-.8.6-1.6c.2-1.6.2-3.9.2-6.7v-17.3c0-.9 0-1.5-.3-1.8s-.5-.6-.9-.9-.9-.4-1.6-.4h-1.4v-1.4l4.3.2c1 0 2.2 0 3.5-.2l4.2 5.2 4 5.1 7.6 9.4 5.9 7V209l-.3-9.8c-.2-.6-1.1-.9-2.6-1.1l-1.7-.2v-1.4l5.6.2 5.3-.2v1.4H557c-1.4 0-2.2.5-2.4 1.4l-.2 9.8v10l.4 9.7-3.5-.7c-.3-.1-.6-.4-.9-.7l-5.2-6.1-16-19.8v.4zm50.5-3c-.2 2.2-.2 4.6-.2 7v12.7c0 4.7 0 7.3.4 7.8s1.1.7 2.5.7h1.7v1.4l-6.7-.2-6.6.2v-1.4h1.9c1 0 1.6-.1 1.9-.4s.5-.8.6-1.5l.2-6.7v-12.7l-.2-6.9H573l-6 .3c-.4.2-.6.8-.7 2l-.3 3h-1.4v-2.7l-.2-4.6 14.1.2 12.3-.2c-.3 2.5-.4 4.9-.5 7.3h-1.4l-.2-2.9c0-1-.2-1.6-.4-1.8s-.5-.3-1.1-.3l-5.6-.2h-1.8zm25.4 14.6v12.9c2.2.2 4.5.2 7 .2l4.2-.2c.7 0 1.5-.3 2.3-.6.4-1.3.8-2.9 1.1-4.9h1.5l-.6 6.5v1l-5 .2h-3.5l-8.5-.2-6.9.2v-1.4h.7c1.3 0 2.1-.1 2.4-.4s.6-.8.7-1.8l.2-6.2v-12.2-4.9c0-1.3-.2-2-.3-2.3s-.3-.4-.5-.6-.8-.3-1.9-.4l-1.7-.2v-1.4h4.8l3 .2h8.6c0-.1 4.1-.2 4.1-.2l4.2.2c-.6 1.8-.9 4.1-.9 6.9h-1.5l-.2-4.1c-1.8-.7-3.9-1-6.5-1l-6.4.3v12.1l3.9.2c3.5 0 5.5-.1 6-.4.5-.2.7-1 .7-2.3v-1.4h1.5l-.2 5.4.2 5h-1.5v-1.3c0-1.4-.3-2.3-.8-2.6-.6-.3-2.5-.5-5.9-.5s-2.5 0-3.9.2h-.3zm39-1l5.4 7.3 4.3 5.5c.8 1 1.3 1.5 1.5 1.6s.5.2.8.2h.6v1.4l-3.2-.2c-.9 0-1.7 0-2.7.2l-7.9-10.7-4.7-5.7.2-.8c.9 0 1.5.1 1.9.1 2.5 0 4.4-.6 5.8-1.9s2.1-3 2.1-5.1-.6-3.4-1.8-4.5-2.9-1.6-5.1-1.6-3.1.3-4.7.9l-.3 7.6v10.8l.4 8.7c.3.6 1.1.9 2.5.9h1.7v1.4l-6.1-.2-6.9.2v-1.4h1.7c1.3 0 2-.3 2.3-.8.2-.6.4-3.5.4-8.8v-10.7c0-4.6 0-7.2-.4-7.7-.3-.5-1.2-.8-2.7-.8h-1.2V197l6.3.2 4.2-.1 4.6-.1c2.6 0 4.5.3 5.8.8s2.3 1.3 3 2.4c.7 1 1 2.3 1 3.7 0 2.1-.8 3.9-2.3 5.5s-3.7 2.7-6.6 3.3v-.2zm23.9-10.6v15.4l.2 7.3c0 1.1.3 1.7.5 1.9s1 .4 2.1.5h1.4v1.5l-4.4-.2-6.3.2v-1.4h1.6c1 0 1.6-.1 1.9-.4s.5-.8.6-1.6c.2-1.6.2-3.9.2-6.7v-17.3c0-.9 0-1.5-.3-1.8s-.5-.6-.9-.9-.9-.4-1.6-.4h-1.4v-1.4l4.3.2c1 0 2.2 0 3.5-.2l4.2 5.2 4 5.1 7.6 9.4 5.9 7V209l-.3-9.8c-.2-.6-1.1-.9-2.6-1.1l-1.7-.2v-1.4l5.6.2 5.3-.2v1.4h-1.7c-1.4 0-2.2.5-2.4 1.4l-.2 9.8v10l.4 9.7-3.5-.7c-.3-.2-.6-.4-.9-.7l-5.2-6.1-16-19.8v.4z"/><use href="#C"/><path d="M757.8 198.9c-.2 2.2-.2 4.6-.2 7v12.7c0 4.7 0 7.3.4 7.8.2.5 1.1.7 2.5.7h1.7v1.4l-6.7-.2-6.6.2v-1.4h1.9c1 0 1.6-.1 1.9-.4s.5-.8.6-1.5l.2-6.7v-12.7l-.2-6.9H751l-6 .3c-.4.2-.6.8-.7 2l-.3 3h-1.4v-2.7l-.2-4.6 14.1.2 12.3-.2c-.3 2.5-.4 4.9-.5 7.3h-1.4l-.2-2.9c0-1-.2-1.6-.4-1.8s-.5-.3-1.1-.3l-5.6-.2h-1.8zm16.6 28.3h1.4c1.4 0 2.2-.3 2.5-1s.4-3.9.4-9.6V209l-.4-9.8c-.2-.6-1-.9-2.1-.9h-1.8v-1.4l7.3.2 5.5-.2v1.4h-1.7c-1.1 0-1.7.1-2 .4s-.4.9-.5 1.9v8.5 7.7l.4 9.5c.4.5 1.1.9 2.4.9h1.5v1.4l-6-.2-6.8.2v-1.4h0zm18.7-14.4c0-4.9 1.6-8.8 4.7-11.8 3.2-3 7.4-4.5 12.6-4.5s9.2 1.4 12.1 4.2 4.4 6.5 4.4 11-1.7 9.1-5.1 12.4-7.7 5-12.8 5-6-.7-8.3-2-4.2-3.2-5.5-5.7-2-5.4-2-8.6h-.1zm4.5-1.9c0 3.4.6 6.3 1.7 8.8 1.2 2.5 2.7 4.4 4.6 5.6s4.1 1.9 6.6 1.9 4.3-.5 6-1.6a11.15 11.15 0 0 0 4.1-4.7c1-2.1 1.5-4.6 1.5-7.6s-.5-5.8-1.6-8.1c-1.1-2.2-2.6-3.9-4.5-5s-4.2-1.7-6.8-1.7-4.4.5-6.2 1.5c-1.7 1-3.1 2.5-4.1 4.4s-1.5 4.1-1.5 6.7l.2-.2zm41.4-9v15.4l.2 7.3c0 1.1.3 1.7.5 1.9s1 .4 2.1.5h1.4v1.5l-4.4-.2-6.3.2v-1.4h1.6c1 0 1.6-.1 1.9-.4s.5-.8.6-1.6c.2-1.6.2-3.9.2-6.7v-17.3c0-.9 0-1.5-.3-1.8s-.5-.6-.9-.9-.9-.4-1.6-.4h-1.4v-1.4l4.3.2c1 0 2.2 0 3.5-.2l4.2 5.2 4 5.1 7.6 9.4 5.9 7V209l-.3-9.8c-.2-.6-1.1-.9-2.6-1.1l-1.7-.2v-1.4l5.6.2 5.3-.2v1.4h-1.7c-1.4 0-2.2.5-2.4 1.4l-.2 9.8v10l.4 9.7-3.5-.7c-.3-.1-.6-.4-.9-.7l-5.2-6.1-16-19.8v.4z"/><use href="#C" x="170.9"/><path d="M922.2 226.4l4.3.1 6.5-.2c1.1-.1 2.2-.3 3.4-.6l1.3-5.2h1.4l-.9 7.9c-1.3.2-3.2.3-5.5.3l-10.6-.2-6.7.2v-1.2c1.2-.5 1.9-1.1 2.1-1.7s.3-2.9.3-7.1v-12.3l-.3-7.5c-.2-.5-.8-.8-1.8-.8h-2.4v-1.4l7 .2 6.3-.2v1.4h-2.8c-.8 0-1.3.2-1.5.7s-.3 2.3-.3 5.6v21.8l.2.2z"/></g><defs ><path id="B" d="M720.4 163.1l-58.1-80.5v82.1h-7.8V70.6c0-1.7 1.1-3.2 2.7-3.7s3.4 0 4.4 1.4l58.1 80.5v-82h7.8v94c0 1.7-1.1 3.2-2.7 3.7-.4.1-.8.2-1.2.2-1.2 0-2.4-.6-3.2-1.6z"/><path id="C" d="M725.7 217.9h-12.9l-1.5 3.6c-1 2.4-1.5 3.8-1.5 4.4s0 .6.3.7c.2.1.7.3 1.4.4l2.1.2v1.4l-4.8-.2-5.6.2v-1.4h.7c1 0 1.7-.2 2-.3s.6-.6 1-1.4l3.2-6.9 6.1-13.9 3.3-8h1.5l11.3 26.2 1.5 3.2a2.36 2.36 0 0 0 .9.8c.3.2 1.1.3 2.2.3v1.4l-5.5-.2-6.5.2v-1.4h2.2c.8-.2 1.3-.3 1.4-.4.2-.2.3-.4.3-.6s-.2-1-.7-2.1l-2.4-6.2zm-12.1-1.8h11.2l-5.6-13.4-5.6 13.4h0z"/></defs></svg>